<?xml version="1.0" encoding="UTF-8" standalone="no"?>
<!-- Created with Inkscape (http://www.inkscape.org/) -->

<svg
   xmlns:dc="http://purl.org/dc/elements/1.1/"
   xmlns:cc="http://creativecommons.org/ns#"
   xmlns:rdf="http://www.w3.org/1999/02/22-rdf-syntax-ns#"
   xmlns:svg="http://www.w3.org/2000/svg"
   xmlns="http://www.w3.org/2000/svg"
   xmlns:sodipodi="http://sodipodi.sourceforge.net/DTD/sodipodi-0.dtd"
   xmlns:inkscape="http://www.inkscape.org/namespaces/inkscape"
   width="744.09448819"
   height="1052.3622047"
   id="svg2"
   version="1.1"
   inkscape:version="0.48.3.1 r9886"
   sodipodi:docname="Nou document 1">
  <defs
     id="defs4" />
  <sodipodi:namedview
     id="base"
     pagecolor="#ffffff"
     bordercolor="#666666"
     borderopacity="1.0"
     inkscape:pageopacity="0.0"
     inkscape:pageshadow="2"
     inkscape:zoom="0.98994949"
     inkscape:cx="371.03256"
     inkscape:cy="660.58921"
     inkscape:document-units="px"
     inkscape:current-layer="capa1"
     showgrid="false"
     showguides="true"
     inkscape:guide-bbox="true"
     inkscape:window-width="1918"
     inkscape:window-height="1078"
     inkscape:window-x="0"
     inkscape:window-y="0"
     inkscape:window-maximized="0" />
  <metadata
     id="metadata7">
    <rdf:RDF>
      <cc:Work
         rdf:about="">
        <dc:format>image/svg+xml</dc:format>
        <dc:type
           rdf:resource="http://purl.org/dc/dcmitype/StillImage" />
        <dc:title></dc:title>
      </cc:Work>
    </rdf:RDF>
  </metadata>
  <g
     inkscape:label="Capa 1"
     inkscape:groupmode="layer"
     id="capa1">
    <g
       id="g3827">
      <path
         inkscape:connector-curvature="0"
         id="path2985"
         d="m 205.0864,295.09478 -73.97178,128.12147 -73.971761,128.15428 147.943541,0 1.4768,0 146.49954,0 147.54972,0 1.444,0 147.94352,0 -73.97176,-128.15428 -73.97176,-128.12147 -59.59749,103.24543 -177.77509,0 -59.59748,-103.24543 z"
         style="fill:#808080;fill-opacity:1;stroke:none;stroke-width:1;stroke-linecap:round;stroke-linejoin:round;stroke-miterlimit:4;stroke-opacity:1;stroke-dashoffset:0" />
      <g
         transform="matrix(1.0032752,0,0,1.0032752,-1.6696695,-15.92887)"
         id="text3785"
         style="font-size:66.06145477px;font-style:normal;font-variant:normal;font-weight:normal;font-stretch:normal;line-height:125%;letter-spacing:-0.08257681px;word-spacing:0px;fill:#808080;fill-opacity:1;stroke:none;font-family:Lemon;-inkscape-font-specification:Lemon">
        <path
           inkscape:connector-curvature="0"
           id="path3811"
           style="font-weight:bold;fill:#808080;font-family:FreeMono;-inkscape-font-specification:FreeMono Bold"
           d="m 95.218578,589.85501 c 2.906666,4e-5 4.360016,1.10106 4.360056,3.30307 -4e-5,1.84975 -1.035002,2.95078 -3.104888,3.30307 l -3.963687,31.90769 -7.26676,0 -6.143716,-18.29903 -6.011592,18.29903 -7.332821,0 -4.095811,-31.90769 c -2.025885,-0.26421 -3.038826,-1.32119 -3.038827,-3.17095 1e-6,-1.32119 0.352329,-2.22403 1.056984,-2.70852 0.748695,-0.48441 1.849718,-0.72663 3.303072,-0.72667 l 8.654051,0 c 2.95073,4e-5 4.426101,1.10106 4.426118,3.30307 -1.7e-5,2.20208 -1.475388,3.3031 -4.426118,3.30307 l -3.17095,0 2.378213,17.96872 5.02067,-14.92989 6.870391,0 5.020671,14.92989 2.312151,-17.96872 -3.501257,0 c -2.906729,3e-5 -4.360079,-1.10099 -4.360056,-3.30307 -2.3e-5,-1.27715 0.374325,-2.13595 1.123045,-2.5764 0.748671,-0.48441 1.827674,-0.72663 3.237011,-0.72667 l 8.65405,0" />
        <path
           inkscape:connector-curvature="0"
           id="path3813"
           style="font-weight:bold;fill:#808080;font-family:FreeMono;-inkscape-font-specification:FreeMono Bold"
           d="m 164.36634,628.36884 c -2.90672,0 -4.36007,-1.10103 -4.36005,-3.30308 -2e-5,-2.20204 1.45333,-3.30306 4.36005,-3.30307 l 0.99093,0 0,-9.31467 -14.13716,0 0,9.31467 0.99093,0 c 2.90668,10e-6 4.36003,1.10103 4.36005,3.30307 -2e-5,2.20205 -1.45337,3.30308 -4.36005,3.30308 l -7.99344,0 c -2.90671,0 -4.36006,-1.10103 -4.36006,-3.30308 0,-1.27718 0.37435,-2.13598 1.12305,-2.57639 0.74869,-0.48445 1.82769,-0.72667 3.23701,-0.72668 l 0.39637,0 0,-25.30154 c -2.29014,-0.22017 -3.4352,-1.32119 -3.4352,-3.30307 0,-1.27715 0.37435,-2.13595 1.12305,-2.5764 0.74869,-0.48441 1.82769,-0.72663 3.23701,-0.72667 l 6.67221,0 c 2.90668,4e-5 4.36003,1.10106 4.36005,3.30307 -2e-5,2.20208 -1.45337,3.3031 -4.36005,3.30307 l -0.99093,0 0,9.38073 14.13716,0 0,-9.38073 -0.99093,0 c -2.90672,3e-5 -4.36007,-1.10099 -4.36005,-3.30307 -2e-5,-1.27715 0.37432,-2.13595 1.12304,-2.5764 0.74868,-0.48441 1.82768,-0.72663 3.23701,-0.72667 l 6.67221,0 c 2.90667,4e-5 4.36002,1.10106 4.36006,3.30307 -4e-5,1.98188 -1.1451,3.0829 -3.4352,3.30307 l 0,25.30154 0.39637,0 c 2.90667,10e-6 4.36002,1.10103 4.36006,3.30307 -4e-5,2.20205 -1.45339,3.30308 -4.36006,3.30308 l -7.99344,0" />
        <path
           inkscape:connector-curvature="0"
           id="path3815"
           style="font-weight:bold;fill:#808080;font-family:FreeMono;-inkscape-font-specification:FreeMono Bold"
           d="m 247.18883,621.76269 c 1.40928,10e-6 2.48828,0.24223 3.23701,0.72668 0.74866,0.44041 1.12301,1.29921 1.12305,2.57639 -4e-5,2.20205 -1.45339,3.30308 -4.36006,3.30308 l -19.95056,0 c -2.90671,0 -4.36006,-1.10103 -4.36005,-3.30308 -1e-5,-1.27718 0.37434,-2.13598 1.12304,-2.57639 0.74869,-0.48445 1.82769,-0.72667 3.23701,-0.72668 l 6.67221,0 0,-25.30154 -6.67221,0 c -2.90671,3e-5 -4.36006,-1.10099 -4.36005,-3.30307 -1e-5,-1.27715 0.37434,-2.13595 1.12304,-2.5764 0.74869,-0.48441 1.82769,-0.72663 3.23701,-0.72667 l 19.95056,0 c 1.40928,4e-5 2.48828,0.24226 3.23701,0.72667 0.74866,0.44045 1.12301,1.29925 1.12305,2.5764 -4e-5,2.20208 -1.45339,3.3031 -4.36006,3.30307 l -6.67221,0 0,25.30154 6.67221,0" />
        <path
           inkscape:connector-curvature="0"
           id="path3817"
           style="font-weight:bold;fill:#808080;font-family:FreeMono;-inkscape-font-specification:FreeMono Bold"
           d="m 323.86759,621.76269 c 2.90668,10e-6 4.36003,1.10103 4.36006,3.30307 -3e-5,2.20205 -1.45338,3.30308 -4.36006,3.30308 l -15.26019,0 c -2.90671,0 -4.36006,-1.10103 -4.36006,-3.30308 0,-1.27718 0.37434,-2.13598 1.12305,-2.57639 0.74868,-0.48445 1.82769,-0.72667 3.23701,-0.72668 l 4.29399,0 0,-25.30154 -7.06857,0 0,6.14372 c -1e-5,2.90672 -1.10103,4.36008 -3.30307,4.36005 -2.20206,3e-5 -3.30308,-1.45333 -3.30308,-4.36005 l 0,-12.74986 34.08771,0 0,12.74986 c -3e-5,1.40933 -0.24226,2.48834 -0.72667,3.23701 -0.44045,0.74872 -1.29925,1.12307 -2.5764,1.12304 -2.20208,3e-5 -3.3031,-1.45333 -3.30307,-4.36005 l 0,-6.14372 -7.2007,0 0,25.30154 4.36005,0" />
        <path
           inkscape:connector-curvature="0"
           id="path3819"
           style="font-weight:bold;fill:#808080;font-family:FreeMono;-inkscape-font-specification:FreeMono Bold"
           d="m 405.23674,618.32749 c -3e-5,-2.95073 1.10099,-4.4261 3.30307,-4.42611 2.20201,10e-6 3.30304,1.47538 3.30307,4.42611 l 0,10.04135 -31.11494,0 c -2.90671,0 -4.36006,-1.10103 -4.36006,-3.30308 0,-2.20204 1.45335,-3.30306 4.36006,-3.30307 l 0.99092,0 0,-25.30154 -0.99092,0 c -2.90671,3e-5 -4.36006,-1.10099 -4.36006,-3.30307 0,-1.27715 0.37435,-2.13595 1.12305,-2.5764 0.74869,-0.48441 1.82769,-0.72663 3.23701,-0.72667 l 29.66159,0 0,9.90922 c -3e-5,2.95077 -1.10106,4.42614 -3.30307,4.42611 -2.20208,3e-5 -3.3031,-1.47534 -3.30307,-4.42611 l 0,-3.30308 -15.45838,0 0,9.31467 5.61522,0 0,-0.46243 c -2e-5,-2.95072 1.07898,-4.42609 3.23701,-4.42612 2.20202,3e-5 3.30305,1.4754 3.30307,4.42612 l 0,7.46494 c -2e-5,2.90672 -1.07902,4.36007 -3.23701,4.36006 -2.20207,1e-5 -3.30309,-1.45334 -3.30307,-4.36006 l 0,-0.46243 -5.61522,0 0,9.44679 16.91173,0 0,-3.4352" />
        <path
           inkscape:connector-curvature="0"
           id="path3821"
           style="font-weight:bold;fill:#808080;font-family:FreeMono;-inkscape-font-specification:FreeMono Bold"
           d="m 476.36634,622.68755 c 2.0699,10e-6 3.83154,-0.24222 5.28492,-0.72668 1.49736,-0.52848 2.55434,-1.07899 3.17095,-1.65153 0.61654,-0.61657 1.23311,-1.16708 1.84972,-1.65154 0.66058,-0.52848 1.27715,-0.79273 1.84972,-0.79274 0.88078,10e-6 1.6515,0.33032 2.31215,0.99093 0.66058,0.66062 0.99088,1.43134 0.99092,2.31215 -4e-5,1.89376 -1.51945,3.72146 -4.55824,5.4831 -2.99482,1.76164 -6.69425,2.64245 -11.09833,2.64246 -5.59321,-10e-6 -10.23953,-1.62952 -13.93896,-4.88855 -3.65541,-3.30307 -5.48311,-7.46493 -5.4831,-12.48562 l 0,-4.36005 c -10e-6,-5.28489 1.71759,-9.71101 5.15279,-13.27836 3.43519,-3.56728 7.70716,-5.35093 12.81592,-5.35097 3.08285,4e-5 6.20975,0.74873 9.38073,2.24609 l 0.66061,0.26424 c 0.74867,-1.05694 1.67353,-1.58543 2.77459,-1.58547 1.27715,4e-5 2.13595,0.37438 2.57639,1.12304 0.48442,0.74874 0.72664,1.82774 0.72668,3.23701 l 0,5.54917 c -4e-5,2.90673 -1.10106,4.36008 -3.30307,4.36005 -0.79277,3e-5 -1.45339,-0.22018 -1.98185,-0.66061 -0.48448,-0.44039 -0.79277,-0.83676 -0.92486,-1.18911 -0.0881,-0.39634 -0.19821,-0.94685 -0.33031,-1.65154 -0.26427,-1.3212 -1.07903,-2.37818 -2.44427,-3.17095 -1.32126,-0.83674 -2.5544,-1.36523 -3.69944,-1.58547 -1.14509,-0.22017 -2.20207,-0.33027 -3.17095,-0.33031 -3.34713,4e-5 -6.12171,1.1451 -8.32374,3.4352 -2.20206,2.24611 -3.30309,5.10877 -3.30308,8.58799 l 0,4.22793 c -1e-5,3.30309 1.16708,5.94554 3.50126,7.92737 2.3782,1.98186 5.54914,2.97278 9.51285,2.97277" />
        <path
           inkscape:connector-curvature="0"
           id="path3823"
           style="font-weight:bold;fill:#808080;font-family:FreeMono;-inkscape-font-specification:FreeMono Bold"
           d="m 556.74454,625.06576 c -2e-5,-1.27718 0.37433,-2.13598 1.12305,-2.57639 0.74867,-0.48445 1.82767,-0.72667 3.23701,-0.72668 l 1.51941,0 -1.51941,-3.83156 -15.72263,0 -1.51941,3.83156 1.51941,0 c 2.90669,10e-6 4.36004,1.10103 4.36006,3.30307 -2e-5,2.20205 -1.45337,3.30308 -4.36006,3.30308 l -8.78617,0 c -2.9067,0 -4.36005,-1.10103 -4.36006,-3.30308 1e-5,-1.32122 0.39637,-2.20204 1.18911,-2.64246 0.7487,-0.4404 1.8277,-0.6606 3.23701,-0.66061 l 10.23953,-25.30154 -4.16187,0 c -2.95075,3e-5 -4.42613,-1.10099 -4.42612,-3.30307 -10e-6,-1.32119 0.37434,-2.20201 1.12304,-2.64246 0.79273,-0.44037 1.89376,-0.66057 3.30308,-0.66061 l 14.26927,0 13.14623,31.90768 c 2.99475,10e-6 4.49214,1.10103 4.49218,3.30307 -4e-5,2.20205 -1.45339,3.30308 -4.36006,3.30308 l -9.18254,0 c -2.90673,0 -4.36008,-1.10103 -4.36006,-3.30308 m 1.65154,-13.74078 -5.15279,-12.6838 -5.21886,12.6838 10.37165,0" />
        <path
           inkscape:connector-curvature="0"
           id="path3825"
           style="font-weight:bold;fill:#808080;font-family:FreeMono;-inkscape-font-specification:FreeMono Bold"
           d="m 640.09552,621.76269 c 2.90667,10e-6 4.36002,1.10103 4.36005,3.30307 -3e-5,2.20205 -1.45338,3.30308 -4.36005,3.30308 l -15.2602,0 c -2.90671,0 -4.36006,-1.10103 -4.36006,-3.30308 0,-1.27718 0.37434,-2.13598 1.12305,-2.57639 0.74868,-0.48445 1.82769,-0.72667 3.23701,-0.72668 l 4.29399,0 0,-25.30154 -7.06857,0 0,6.14372 c -10e-6,2.90672 -1.10103,4.36008 -3.30307,4.36005 -2.20206,3e-5 -3.30308,-1.45333 -3.30308,-4.36005 l 0,-12.74986 34.08771,0 0,12.74986 c -3e-5,1.40933 -0.24226,2.48834 -0.72667,3.23701 -0.44045,0.74872 -1.29925,1.12307 -2.5764,1.12304 -2.20208,3e-5 -3.3031,-1.45333 -3.30307,-4.36005 l 0,-6.14372 -7.2007,0 0,25.30154 4.36006,0" />
      </g>
    </g>
  </g>
</svg>
